<?xml version="1.0" encoding="UTF-8" standalone="no"?>
<!-- Created with Inkscape (http://www.inkscape.org/) -->

<svg
   xmlns:dc="http://purl.org/dc/elements/1.1/"
   xmlns:cc="http://creativecommons.org/ns#"
   xmlns:rdf="http://www.w3.org/1999/02/22-rdf-syntax-ns#"
   xmlns:svg="http://www.w3.org/2000/svg"
   xmlns="http://www.w3.org/2000/svg"
   xmlns:sodipodi="http://sodipodi.sourceforge.net/DTD/sodipodi-0.dtd"
   xmlns:inkscape="http://www.inkscape.org/namespaces/inkscape"
   width="95.503998mm"
   height="85.003044mm"
   viewBox="0 0 338.39999 301.19189"
   id="svg6201"
   version="1.1"
   inkscape:version="0.91 r13725"
   sodipodi:docname="GTA San Andreas.svg">
  <title
     id="title7174">Grand Theft Auto: San Andreas</title>
  <defs
     id="defs6203" />
  <sodipodi:namedview
     id="base"
     pagecolor="#ffffff"
     bordercolor="#666666"
     borderopacity="1.0"
     inkscape:pageopacity="0.0"
     inkscape:pageshadow="2"
     inkscape:zoom="1.4142136"
     inkscape:cx="183.87164"
     inkscape:cy="155.96488"
     inkscape:document-units="px"
     inkscape:current-layer="layer1"
     showgrid="false"
     fit-margin-top="0"
     fit-margin-left="0"
     fit-margin-right="0"
     fit-margin-bottom="0"
     inkscape:window-width="1366"
     inkscape:window-height="705"
     inkscape:window-x="-8"
     inkscape:window-y="-8"
     inkscape:window-maximized="1" />
  <metadata
     id="metadata6206">
    <rdf:RDF>
      <cc:Work
         rdf:about="">
        <dc:format>image/svg+xml</dc:format>
        <dc:type
           rdf:resource="http://purl.org/dc/dcmitype/StillImage" />
        <dc:title>Grand Theft Auto: San Andreas</dc:title>
        <dc:date>11/11/2016</dc:date>
        <dc:creator>
          <cc:Agent>
            <dc:title>Rockstar Games</dc:title>
          </cc:Agent>
        </dc:creator>
        <dc:publisher>
          <cc:Agent>
            <dc:title>CMetalCore</dc:title>
          </cc:Agent>
        </dc:publisher>
        <dc:source>https://4.bp.blogspot.com/-2gc4d8k8Mxk/VYkAEvzN8BI/AAAAAAAACU4/Pubs75N3MJE/s1600/GTA-San-Andreas-Android-iOS.png</dc:source>
        <dc:language>English</dc:language>
        <dc:rights>
          <cc:Agent>
            <dc:title>Rockstar Games, Inc.</dc:title>
          </cc:Agent>
        </dc:rights>
      </cc:Work>
    </rdf:RDF>
  </metadata>
  <g
     inkscape:label="Capa 1"
     inkscape:groupmode="layer"
     id="layer1"
     transform="translate(-183.37143,-324.61932)">
    <g
       id="g5016">
      <path
         id="path7088"
         transform="translate(183.37143,324.61932)"
         d="M 224.70117 0 L 224.70117 6.5253906 L 224.69922 13.050781 L 221.77539 13.080078 C 220.16674 13.096238 218.04078 13.275589 217.05078 13.480469 C 214.83784 13.938439 211.29775 15.589322 210.3418 16.607422 L 209.63086 17.363281 L 208.16016 16.351562 C 206.1436 14.964413 203.82147 14.148899 200.42383 13.636719 C 196.10536 12.985689 162.74397 12.996118 162.37891 13.648438 C 162.17073 14.020398 161.95382 14.036684 161.08984 13.746094 C 160.39126 13.511134 156.01646 13.357444 147.75 13.277344 C 137.56372 13.178634 135.07703 13.235881 133.27344 13.613281 C 130.42526 14.209281 127.80808 15.403066 126.58398 16.666016 L 125.60156 17.679688 L 124.50195 16.6875 C 123.8974 16.14132 122.6544 15.327126 121.73828 14.878906 C 118.18247 13.139196 119.73249 13.207125 83.339844 13.203125 L 49.828125 13.199219 L 47.902344 13.898438 C 42.746564 15.769887 39.334885 19.137367 37.546875 24.117188 L 36.78125 26.25 L 36.667969 61.875 L 36.552734 97.5 L 51.576172 97.5 L 66.599609 97.5 L 66.599609 106.34961 L 66.599609 115.19922 L 68.400391 115.19922 L 70.201172 115.19922 L 70.205078 126.97461 C 70.208588 136.31352 70.299974 139.14019 70.652344 140.63477 C 71.181304 142.87835 71.971236 144.5044 73.222656 145.92969 L 74.142578 146.97656 L 73.447266 147.11523 C 66.219896 148.53795 61.9858 151.15228 59.78125 155.55469 C 58.17739 158.75754 58.109048 159.45255 58.486328 168.90039 C 58.674128 173.60289 58.811116 177.78672 58.791016 178.19922 C 58.770946 178.61172 58.692987 184.12499 58.617188 190.45117 C 58.501447 200.10485 58.55351 202.24136 58.9375 203.74023 C 60.31387 209.11275 63.791413 212.66774 69.039062 214.06445 C 70.125542 214.35363 72.277834 214.49409 75.652344 214.49609 L 80.65625 214.5 L 79.931641 216.3457 C 78.097011 221.02712 77.203509 221.13297 70.636719 217.44727 C 67.962639 215.94641 67.0344 215.57903 65.65625 215.46875 L 63.962891 215.33203 L 63.744141 216.3418 C 63.308541 218.3619 61.514903 221.67614 60.601562 222.14844 C 59.614652 222.6588 57.908038 222.73196 56.486328 222.32422 C 55.695778 222.09749 55.500869 222.13693 55.386719 222.54883 C 55.310439 222.8241 54.681564 225.678 53.990234 228.89062 L 52.734375 234.73242 L 53.431641 235.19141 C 57.070411 237.58459 58.603657 239.24486 58.998047 241.2168 C 59.186567 242.15941 59.049689 242.06543 56.505859 239.53125 C 54.660879 237.69326 52.968629 236.35596 51.130859 235.28125 C 49.655939 234.41872 48.274977 233.60989 48.060547 233.48242 C 47.763017 233.30554 48.454635 231.19713 50.984375 224.58203 C 52.807555 219.81454 54.300781 215.74316 54.300781 215.53516 C 54.300781 215.16929 42.930389 207.59961 42.380859 207.59961 C 42.231179 207.59961 41.915867 207.99688 41.679688 208.48242 L 41.25 209.36523 L 33.175781 203.55078 L 25.099609 197.73438 L 23.771484 198.68945 C 21.586154 200.25884 16.170022 206.07795 14.357422 208.80469 C 10.384262 214.78167 8.0996094 221.31315 8.0996094 226.69727 C 8.0996094 228.12854 7.962485 228.49018 6.921875 229.80664 C 3.685295 233.90123 1.8730031 240.7917 2.1894531 247.79102 C 2.4440031 253.42119 3.9051106 257.85508 6.6503906 261.32812 L 7.8886719 262.89258 L 7.0195312 263.49609 C 5.3373513 264.66284 2.7784594 267.62282 1.8496094 269.47656 C 0.43245938 272.30481 3.3080846e-018 274.43221 0 278.57422 C 0 286.90185 3.1253069 293.35487 8.3730469 295.85938 C 10.039317 296.65457 10.778323 296.81849 13.195312 296.92969 C 17.427662 297.12449 21.998842 295.85354 26.451172 293.24414 C 27.437872 292.66584 28.403796 292.28569 28.597656 292.40039 C 28.791516 292.51499 31.01176 294.2043 33.53125 296.1543 C 36.05075 298.1042 38.262626 299.69922 38.447266 299.69922 C 39.659136 299.69922 49.479738 289.97096 52.986328 285.29688 C 54.590388 283.15877 57.654181 278.49757 58.056641 277.58203 C 58.073181 277.54438 58.781579 278.16555 59.630859 278.96289 C 61.381159 280.60614 64.538216 282.34661 66.728516 282.87695 L 68.205078 283.23438 L 71.603516 279.8457 C 74.856266 276.60216 75.030961 276.47491 75.675781 276.88477 C 77.715521 278.18119 78.803779 278.52906 80.849609 278.53906 L 82.949219 278.55078 L 86.185547 274.5 C 87.964787 272.2725 89.587436 270.2004 89.791016 269.89648 C 90.136376 269.38088 90.369017 269.47704 93.279297 271.32227 C 94.994767 272.40993 96.480578 273.30078 96.580078 273.30078 C 96.679618 273.30078 98.236063 271.82033 100.03906 270.01172 L 103.31641 266.72266 L 104.59961 267.77539 C 106.59904 269.41377 108.41192 270.08729 110.91211 270.12109 L 113.08203 270.15039 L 114.96484 268.2832 L 116.84961 266.41602 L 118.61719 267.30859 C 120.75174 268.38555 123.32978 268.51432 125.25 267.64062 C 126.84329 266.91567 129.14473 264.54044 129.97852 262.75977 C 130.34817 261.97034 130.72992 261.3195 130.82812 261.3125 C 131.2258 261.2851 134.73418 263.74116 137.65234 266.08984 L 140.75391 268.58594 L 143.85352 265.49609 L 146.95312 262.4082 L 147.85547 263.16602 C 151.64318 266.35316 156.92171 266.00091 161.10156 262.28125 L 162.45117 261.08008 L 166.00781 264.20703 C 169.17637 266.99354 169.61761 267.28877 170.05664 266.91016 C 170.32767 266.67644 172.00441 265.30494 173.7832 263.86328 L 177.01758 261.24219 L 177.68359 262.0957 C 179.43436 264.34584 181.43942 265.64102 184.17773 266.28711 L 185.80469 266.66992 L 188.67773 264.01953 C 190.25786 262.56148 191.80677 261.08309 192.12109 260.73438 C 192.43541 260.38565 192.82598 260.09961 192.98828 260.09961 C 193.88882 260.09961 198.91052 263.96924 202.24609 267.23242 L 206.04297 270.94531 L 206.89648 270.49609 C 207.36614 270.24847 209.16789 269.02878 210.90039 267.78711 C 213.55048 265.88779 218.80861 262.80078 219.39258 262.80078 C 219.4859 262.80078 222.28719 265.1616 225.61719 268.04883 L 231.67188 273.29883 L 233.06055 272.29883 C 236.46103 269.85028 239.80129 267.54219 240.125 267.41797 C 240.31897 267.34353 243.96664 270.32378 248.23047 274.04102 C 252.49431 277.75829 256.13287 280.79411 256.31641 280.78711 C 256.49996 280.77997 258.06404 279.44316 259.79297 277.81641 L 262.9375 274.85938 L 264.03516 277.08398 C 265.55359 280.16033 267.35205 282.3847 269.45508 283.78906 C 271.44981 285.12109 272.91741 285.5254 273.88086 285.00977 C 274.23486 284.82032 275.43065 283.88561 276.53906 282.93164 L 278.55469 281.19727 L 279.35938 282.32812 C 280.15458 283.44508 282.15073 285.11451 284.25781 286.42578 C 285.37198 287.11918 286.20721 287.23193 287.24023 286.82812 C 287.68201 286.65543 288.26772 286.91906 289.57422 287.88086 C 293.32485 290.64216 297.15602 291.71349 299.35352 290.61719 C 300.21215 290.18889 300.28699 290.20488 300.97852 290.95898 C 301.94086 292.00858 303.93667 294.69379 306.41797 298.27539 L 306.41992 298.27539 C 307.53445 299.88409 308.53699 301.19141 308.64844 301.19141 C 308.75989 301.18681 309.39078 300.36323 310.05078 299.36133 C 312.35646 295.86133 315.28407 294.33205 320.25195 294.03125 L 323.25195 293.84961 L 323.60547 290.84961 C 325.2615 276.80585 324.49485 266.42145 321.44727 261.59375 L 320.69336 260.40039 L 321.41797 259.25195 C 321.8164 258.62082 322.74319 256.90035 323.47852 255.42773 C 328.30006 245.772 328.13748 237.91008 323.00781 232.65625 C 321.65739 231.27313 321.21562 231.01326 319.67578 230.69922 C 315.33565 229.81404 311.73786 231.62608 310.67188 235.23633 L 310.32422 236.41797 L 308.12695 233.85938 C 306.91855 232.45173 305.80782 231.30078 305.66016 231.30078 C 305.5125 231.30078 303.66305 232.16712 301.54883 233.22656 L 297.70508 235.15234 L 297.3418 234.15234 C 296.85064 232.79403 294.91082 231.10722 293.35938 230.68945 C 292.61795 230.48984 291.41711 230.42911 290.49023 230.54492 L 288.89648 230.74414 L 284.43359 226.14648 L 279.97266 221.55078 L 278.33008 223.09961 C 276.39946 224.92251 274.54243 225.59961 271.4668 225.59961 C 270.35248 225.59961 269.12264 225.72152 268.73438 225.86914 C 268.07167 226.12108 267.7719 225.76096 263.84766 220.01758 C 261.54841 216.65247 259.58678 213.90039 259.48828 213.90039 C 259.38984 213.90039 256.88821 215.42486 253.92969 217.28906 C 250.97117 219.15326 248.3969 220.77251 248.20898 220.88672 C 247.9956 221.0164 246.66743 219.35203 244.66992 216.45508 C 242.91069 213.90371 241.3458 211.73873 241.19336 211.64453 C 241.04091 211.55031 239.34176 212.48272 237.41797 213.71484 L 233.91992 215.95508 L 232.47461 214.40234 C 231.23767 213.07495 231.09733 212.80733 231.50781 212.55078 C 235.67364 209.94707 237.88666 206.53877 238.50586 201.77539 C 238.88619 198.84872 238.88296 161.0216 238.50195 158.9668 C 237.48054 153.45834 233.14239 149.20338 227.02539 147.70898 L 225 147.21289 L 225 137.95703 L 225 128.69922 L 231.30078 128.69922 L 237.60156 128.69922 L 237.60547 134.02539 C 237.60883 137.44856 237.76281 140.06461 238.03516 141.34961 C 239.23689 147.01956 243.009 150.99686 248.70117 152.59766 C 250.4501 153.08952 251.96507 153.14644 263.40039 153.14844 L 276.15039 153.15039 L 278.55078 152.30664 C 283.07019 150.71747 286.22728 148.10471 288.00781 144.47852 C 289.79314 140.84008 289.78892 140.90877 289.79492 112.875 L 289.80078 87.300781 L 279.30078 87.300781 L 268.80078 87.300781 L 268.80078 85.941406 L 268.80078 84.583984 L 237.07617 84.667969 L 205.34961 84.75 L 203.60938 85.453125 C 202.65153 85.839635 201.34784 86.649886 200.71289 87.253906 L 199.55859 88.351562 L 198.4043 87.335938 C 196.87073 85.985737 194.03386 84.710749 191.63477 84.292969 C 190.31374 84.062719 185.63713 83.992166 177.11914 84.072266 C 163.25035 84.202676 162.45016 84.299251 160.11719 86.144531 L 158.98438 87.041016 L 158.07227 86.273438 C 157.57048 85.851218 156.45808 85.300351 155.59961 85.050781 C 153.91322 84.560541 149.10709 84.020312 146.32617 84.007812 L 144.59961 84 L 144.59961 82.349609 L 144.59961 80.699219 L 179.55078 80.699219 L 214.5 80.699219 L 214.5 79.628906 C 214.5 78.617966 214.52953 78.586172 215.01367 79.070312 C 216.49862 80.555262 216.34248 80.543372 236.87695 80.638672 L 256.10156 80.728516 L 256.30078 58.164062 C 256.41045 45.754003 256.5 27.591031 256.5 17.800781 L 256.5 0 L 240.59961 0 L 224.70117 0 z M 88.199219 80.400391 L 93.75 80.400391 L 99.300781 80.400391 L 99.300781 82.199219 L 99.300781 84 L 93.75 84 L 88.199219 84 L 88.199219 82.199219 L 88.199219 80.400391 z "
         style="fill:#000000" />
      <path
         inkscape:connector-curvature="0"
         id="path7086"
         d="m 496.47832,617.4663 c 1.61673,-0.8161 5.49417,-1.847 6.9471,-1.847 0.70092,0 0.79887,-0.4593 1.27527,-5.9796 0.43344,-5.02251 0.19017,-14.08339 -0.45564,-16.97037 -0.60039,-2.68409 -2.0901,-5.72291 -3.12132,-6.36718 -0.44127,-0.27567 -0.84309,-0.52663 -0.89295,-0.55768 -0.0499,-0.031 0.64248,-1.18566 1.53852,-2.5658 3.62412,-5.58199 5.31027,-10.06168 5.52648,-14.68238 0.1797,-3.84095 -0.28983,-5.77863 -1.94112,-8.01043 -1.48704,-2.00986 -2.32281,-2.46653 -4.51404,-2.46653 -1.35921,0 -1.97937,0.15031 -2.58471,0.62649 -1.49817,1.17846 -1.81686,2.21289 -1.77612,5.76526 0.0328,2.86265 -0.0207,3.23061 -0.45774,3.14644 -0.27219,-0.0524 -2.1051,-1.93941 -4.0731,-4.19331 l -3.57819,-4.09801 -4.74612,2.37656 c -2.61039,1.30711 -4.87935,2.37657 -5.04216,2.37657 -0.16764,0 -0.21948,-0.38287 -0.11949,-0.88278 0.27549,-1.37737 -0.43701,-3.83077 -1.31244,-4.51939 -0.87681,-0.6897 -3.00099,-0.80302 -4.60047,-0.24544 l -1.01088,0.3524 -4.05888,-4.22941 c -3.86046,-4.02265 -4.08822,-4.20686 -4.65888,-3.76822 -1.66872,1.28266 -3.84291,1.97167 -6.92535,2.19467 -2.11377,0.15293 -3.48408,0.4133 -4.3002,0.81708 l -1.19781,0.59263 -4.09764,-5.9747 c -2.45707,-3.58259 -4.24662,-5.91753 -4.46973,-5.83192 -0.20464,0.0785 -2.7491,1.63955 -5.65436,3.46893 -2.90526,1.82938 -5.41743,3.32615 -5.58261,3.32615 -0.16517,0 -1.73219,-2.05875 -3.48226,-4.575 -1.75008,-2.51625 -3.27926,-4.61058 -3.39818,-4.65406 -0.11892,-0.0435 -1.69452,0.86617 -3.50134,2.02145 l -3.28511,2.10052 -2.40897,-2.39646 c -1.32494,-1.31805 -2.51538,-2.39645 -2.64542,-2.39645 -0.13005,0 -1.27473,0.78547 -2.54374,1.74548 -1.269,0.96002 -2.49446,1.85687 -2.72323,1.99301 -0.29731,0.17693 -1.03057,-0.42331 -2.57087,-2.10446 l -2.15492,-2.35198 -0.98519,0.70152 -0.98519,0.70151 -11.96894,-11.96613 -11.96894,-11.96614 0,8.86501 0,8.86501 2.55,3.5236 c 1.4025,1.93798 2.55,3.6414 2.55,3.78538 0,0.34096 -3.12158,3.00819 -3.52062,3.00819 -0.16825,0 -0.47768,-0.20696 -0.68761,-0.45991 -0.31667,-0.38157 -0.22112,-0.77124 0.56101,-2.28776 l 0.9427,-1.82786 -2.15497,-2.43723 c -1.18524,-1.34049 -2.32079,-2.62399 -2.52345,-2.85224 -0.30779,-0.34664 -0.59271,-0.23125 -1.72995,0.70064 -1.5216,1.24684 -1.35432,1.27987 -3.97965,-0.78585 -1.0134,-0.79739 -1.99168,-1.44979 -2.17397,-1.44979 -0.18228,0 -1.81665,1.43491 -3.63193,3.1887 l -3.3005,3.18869 -1.32347,-1.21993 c -1.63148,-1.50384 -3.96672,-2.71573 -5.65445,-2.93441 l -1.27315,-0.16495 -0.72605,1.70263 c -1.14108,2.6759 -4.70189,6.13927 -6.31199,6.13927 -0.20819,0 -0.31196,-2.67866 -0.31196,-8.05304 0,-7.30415 0.0565,-8.21719 0.60734,-9.81828 0.33403,-0.97089 0.99392,-2.17328 1.46641,-2.67197 1.03125,-1.08842 1.82625,-2.59321 1.82625,-3.45671 0,-1.11795 -0.89993,-2.41317 -2.28856,-3.29382 -1.72827,-1.09604 -2.21859,-0.9417 -5.38562,1.69523 -3.72005,3.09738 -3.14989,2.95912 -6.6067,1.60213 -10.30957,-4.04709 -20.13468,-2.14783 -26.10796,5.04686 -2.3365,2.81426 -4.70461,7.76855 -5.81514,12.16578 -0.49281,1.95131 -0.89602,3.81467 -0.89602,4.14082 0,0.32615 -0.10125,0.54448 -0.225,0.48517 -0.12375,-0.0593 -0.73289,-0.36634 -1.35366,-0.68231 l -1.12866,-0.57448 -1.18174,1.15394 -1.18175,1.15395 -2.76051,-1.65015 -2.7605,-1.65015 -3.1433,3.25351 c -1.72882,1.78944 -3.2382,3.25352 -3.35417,3.25352 -0.11598,0 -0.77064,-0.51678 -1.4548,-1.14839 -1.23382,-1.13906 -3.71046,-2.50657 -5.16011,-2.84923 -0.67155,-0.15874 -0.84771,3e-4 -1.60742,1.45135 -0.86088,1.64426 -3.15113,4.04675 -3.85668,4.04569 -0.20993,-3e-4 -1.51255,-0.68071 -2.89471,-1.51199 -1.38215,-0.83128 -2.53938,-1.47227 -2.57161,-1.42442 -0.0322,0.0478 -0.41893,0.71649 -0.85933,1.48588 -1.16584,2.03673 -2.48223,2.75388 -4.75346,2.58959 -1.51217,-0.10938 -2.48964,-0.4769 -5.87734,-2.20984 -2.23494,-1.14326 -4.15306,-2.11511 -4.26251,-2.15969 -0.10945,-0.0446 -0.64713,0.93867 -1.19484,2.18499 -1.44109,3.27917 -3.64976,4.94606 -6.55366,4.94606 -0.88624,0 -0.93096,0.0661 -1.3698,2.025 -1.31538,5.87149 -1.31058,5.80919 -0.48824,6.34163 4.16012,2.69354 6.0183,6.8264 4.5336,10.08337 -0.58273,1.27832 -2.03125,3.15 -2.43783,3.15 -0.13458,0 -0.68127,-0.77625 -1.21486,-1.725 -2.06409,-3.67005 -7.03347,-7.76147 -11.76211,-9.68405 -0.94875,-0.38575 -1.725,-0.80345 -1.725,-0.92822 0,-0.12478 1.55166,-4.30828 3.44812,-9.29668 1.89647,-4.9884 3.41522,-9.10126 3.375,-9.13969 -0.20542,-0.19632 -6.52382,-4.30563 -7.0683,-4.59702 -0.55826,-0.29878 -0.69175,-0.22814 -1.11479,0.58993 -0.27488,0.53157 -0.64713,0.86545 -0.86968,0.78005 -0.21401,-0.0821 -4.06768,-2.7923 -8.56371,-6.02261 l -8.1746,-5.8733 -1.09102,0.87422 c -0.60006,0.48082 -1.70922,1.5263 -2.4648,2.32329 -6.90797,7.28656 -10.51834,15.00885 -10.5445,22.55385 l -0.01,2.80478 -1.2644,1.16548 c -1.54544,1.42454 -2.89027,4.23307 -3.95986,8.26976 -1.04401,3.94011 -1.10569,9.79338 -0.14117,13.39535 1.11261,4.15498 3.60625,8.01612 6.46687,10.01326 l 0.87343,0.60979 -1.91541,1.0184 c -4.14679,2.20481 -7.31411,6.29411 -8.08182,10.43436 -0.91661,4.94328 0.24431,11.28472 2.75386,15.04282 2.8185,4.2207 7.30787,5.4183 13.33601,3.5576 2.29019,-0.7069 6.18891,-2.584 8.12015,-3.9095 l 1.25965,-0.8646 4.84943,3.7539 c 2.66719,2.0646 5.02832,3.7538 5.24696,3.7538 0.21865,0 2.27721,-1.8562 4.57459,-4.125 6.20591,-6.1286 10.2606,-11.49495 13.37356,-17.69997 0.7657,-1.52625 1.44843,-2.775 1.51718,-2.775 0.0687,0 0.4535,0.70875 0.85501,1.575 1.33984,2.89071 4.30484,5.57802 7.33329,6.64653 l 1.24371,0.43881 3.49964,-3.73017 c 1.9248,-2.05158 3.63655,-3.73017 3.80388,-3.73017 0.16733,0 0.78573,0.42276 1.37423,0.93945 1.20966,1.06212 3.80655,2.35752 4.70922,2.34909 0.41966,-0.004 1.77217,-1.53048 4.5,-5.07915 2.145,-2.79046 4.04378,-5.08163 4.21952,-5.09148 0.17574,-0.01 1.71215,0.86793 3.41423,1.95063 l 3.09472,1.96854 0.93576,-0.83638 c 0.51467,-0.46 2.26184,-2.1221 3.8826,-3.69354 l 2.94683,-2.85716 0.50317,0.69631 c 2.01857,2.79343 4.19092,4.24475 6.36256,4.25076 0.90155,0.002 1.32618,-0.26868 2.85,-1.82002 0.98484,-1.00262 2.16589,-2.09468 2.62457,-2.42681 l 0.83397,-0.60386 1.22416,1.10596 c 2.19288,1.98113 3.93513,2.3796 5.93763,1.35801 2.16399,-1.104 4.22027,-4.35134 4.22027,-6.6648 0,-1.65246 5.36026,0.95321 10.39205,5.05166 l 1.66739,1.3581 0.94528,-0.84588 c 0.51991,-0.46523 2.05489,-1.92183 3.41107,-3.23687 1.35618,-1.31504 2.51426,-2.33059 2.57349,-2.25677 0.0592,0.0738 0.49309,0.65183 0.96411,1.28449 0.47101,0.63265 1.54044,1.54264 2.3765,2.02218 3.04098,1.74425 6.10891,0.91257 9.56239,-2.59223 l 1.88395,-1.91196 3.64979,3.14087 c 2.00739,1.72747 3.73058,3.14086 3.82933,3.14086 0.0987,0 2.01046,-1.48994 4.24825,-3.31097 l 4.06872,-3.31097 0.67438,1.45559 c 0.86026,1.85679 2.29992,3.49505 3.86945,4.40324 2.11816,1.22566 2.16374,1.20754 6.00852,-2.38785 1.94034,-1.81447 3.65989,-3.34698 3.82121,-3.40558 0.53215,-0.19327 4.10852,1.76125 6.59177,3.60246 1.34274,0.99559 3.62342,2.94967 5.06817,4.34242 l 2.62682,2.53226 2.50868,-1.79734 c 4.60416,-3.29862 9.16831,-5.72326 10.77351,-5.72326 0.3362,0 3.01446,2.10931 6.18994,4.875 3.07854,2.68125 5.72139,4.83724 5.873,4.79109 0.15162,-0.0461 2.09297,-1.37422 4.31411,-2.95128 2.22114,-1.57705 4.20037,-2.79967 4.39828,-2.71692 0.19792,0.0827 3.77524,3.13812 7.9496,6.7897 l 7.58976,6.63923 4.08602,-3.82167 4.08603,-3.8217 0.79059,2.53326 c 1.41725,4.54131 3.96011,8.40915 6.38807,9.7167 1.25457,0.67563 1.18914,0.71235 5.07012,-2.84673 1.47363,-1.35135 2.70909,-2.40747 2.74548,-2.34687 0.0364,0.0606 0.36939,0.75957 0.74004,1.55325 0.82593,1.76859 3.05475,4.20033 4.77261,5.20707 l 1.27908,0.74958 0.86442,-0.61551 0.86442,-0.61551 2.06679,1.65291 c 2.34783,1.87757 5.8161,3.72907 6.98214,3.72707 0.43158,0 1.38225,-0.3977 2.1126,-0.8822 1.00638,-0.6677 1.45788,-0.8114 1.86471,-0.5937 0.72462,0.3878 3.69801,3.9505 5.85036,7.0099 l 1.75701,2.4975 1.38705,-1.2916 c 0.76287,-0.7104 2.18931,-1.6966 3.16983,-2.1916 z"
         style="fill:#ffffff" />
      <path
         inkscape:connector-curvature="0"
         id="path7084"
         d="m 217.72143,612.2838 c -5.66121,-4.80206 -4.74191,-4.55186 -7.77726,-2.1165 -6.93111,5.561 -12.34509,6.3337 -16.25873,2.3204 -2.1051,-2.1587 -2.87092,-4.20949 -3.04512,-8.15449 -0.1009,-2.28519 -0.008,-3.47241 0.37514,-4.8 1.12724,-3.9048 3.58425,-7.20867 6.43531,-8.65341 2.14953,-1.08925 3.33194,-1.2008 6.31327,-0.59557 2.53055,0.51372 2.69175,0.51435 3.45601,0.0136 0.44091,-0.28889 1.05487,-1.08849 1.36436,-1.77688 l 0.5627,-1.25161 -2.31284,-0.31759 c -6.23492,-0.85617 -9.8009,-3.18808 -12.24334,-8.00634 -1.37491,-2.71231 -1.90974,-5.16839 -1.91506,-8.79457 -0.007,-4.79467 1.6572,-10.04837 4.007,-12.64932 0.91302,-1.0106 1.08856,-1.42349 1.08856,-2.5604 0,-3.46623 1.91264,-10.27471 3.89097,-13.85083 2.55587,-4.62009 6.84178,-10.03067 7.57816,-9.56673 0.21456,0.13518 1.94053,1.40519 3.83549,2.82224 1.89496,1.41705 5.43479,4.01404 7.86629,5.77108 l 4.4209,3.19461 0.61019,-1.19607 c 0.33561,-0.65785 0.71496,-1.19608 0.843,-1.19608 0.12804,0 0.92145,0.43875 1.76312,0.975 l 1.53032,0.975 -3.22673,8.55 c -1.7747,4.7025 -3.32043,8.84738 -3.43495,9.21086 -0.18901,0.59992 0.0829,0.79815 2.94827,2.14976 7.42869,3.5041 12.05411,7.9658 13.70275,13.21774 0.89501,2.85119 1.07629,7.08272 0.4383,10.23133 -1.24426,6.14065 -5.51279,14.50815 -10.62598,20.82987 -1.84905,2.28609 -7.8064,8.5687 -8.10431,8.5468 -0.10218,-0.01 -1.94079,-1.5024 -4.08579,-3.3219 z"
         style="fill:#000000;fill-opacity:1" />
      <path
         inkscape:connector-curvature="0"
         id="path7082"
         d="m 203.61589,608.42197 c 1.06581,-0.50865 2.63789,-1.56855 3.49351,-2.3553 l 1.55568,-1.43043 -1.32183,-1.07232 c -2.37034,-1.92288 -5.3362,-3.75663 -6.68808,-4.13514 -1.07919,-0.30216 -1.48022,-0.29571 -2.16775,0.0349 -1.77273,0.85245 -2.80399,3.6384 -2.35265,6.35571 0.63785,3.84027 3.09598,4.69541 7.48112,2.60259 z"
         style="fill:#ffffff" />
      <path
         inkscape:connector-curvature="0"
         id="path7080"
         d="m 200.22658,606.44419 c -1.44491,-1.01205 -0.43992,-4.33707 1.18743,-3.92862 1.0527,0.26421 3.25742,1.92213 3.25742,2.44953 0,0.45822 -1.67643,1.43166 -3.01985,1.75353 -0.47456,0.1137 -1.02114,0.008 -1.425,-0.27444 z"
         style="fill:#000000" />
      <path
         inkscape:connector-curvature="0"
         id="path7078"
         d="m 227.10292,599.19433 c 4.21812,-6.58521 5.95421,-12.48837 4.87521,-16.57701 -1.24062,-4.70111 -5.69665,-7.87826 -12.13688,-8.65359 l -1.93027,-0.23239 -0.61977,1.6998 c -0.82422,2.2605 -0.80038,2.38819 0.446,2.38819 3.34247,0 8.27865,2.01504 9.97373,4.07146 2.856,3.46483 1.84083,9.39919 -2.75667,16.11452 l -1.36085,1.98774 0.964,0.75981 c 0.53021,0.4179 0.98476,0.76131 1.01012,0.76314 0.0254,0.003 0.71629,-1.04292 1.53538,-2.32167 z"
         style="fill:#ffffff" />
      <path
         inkscape:connector-curvature="0"
         id="path7076"
         d="m 220.48666,595.14977 c 0.64057,-1.03191 1.11529,-2.23454 1.20852,-3.06162 0.14321,-1.27059 0.0751,-1.44058 -1.01373,-2.52939 -1.30571,-1.30571 -3.45438,-1.94808 -5.95952,-1.78166 l -1.3884,0.0922 -1.04052,2.39684 c -0.57229,1.31827 -0.93501,2.43403 -0.80605,2.47948 0.12896,0.0455 1.85447,1.0109 3.83447,2.14546 1.98,1.13455 3.71481,2.03927 3.85512,2.01047 0.14031,-0.0288 0.72986,-0.8171 1.31011,-1.75181 z"
         style="fill:#ffffff" />
      <path
         inkscape:connector-curvature="0"
         id="path7074"
         d="m 216.28581,593.02549 c -0.94291,-0.52232 -1.71438,-1.09635 -1.71438,-1.27563 0,-0.17927 0.32995,-0.63591 0.73323,-1.01477 0.59742,-0.56125 0.93123,-0.65168 1.80227,-0.48828 1.48372,0.27835 2.17191,1.34753 1.6611,2.58073 -0.2061,0.49756 -0.46318,0.95933 -0.57129,1.02615 -0.10811,0.0668 -0.96803,-0.30587 -1.91093,-0.8282 z"
         style="fill:#000000" />
      <path
         inkscape:connector-curvature="0"
         id="path7072"
         d="m 213.06097,575.45532 c 0.34785,-0.8877 0.58987,-1.65659 0.53782,-1.70864 -0.0521,-0.0521 -1.03575,-0.2405 -2.186,-0.41878 -4.51808,-0.70028 -7.64336,-3.16843 -10.04415,-7.93224 l -1.22278,-2.42633 0.19446,1.95 c 0.303,3.03841 0.68584,4.48107 1.6882,6.36169 1.12549,2.11165 3.052,3.94675 5.15317,4.9087 1.58579,0.726 4.67017,1.36976 5.04329,1.05262 0.11195,-0.0952 0.48814,-0.89932 0.83599,-1.78702 z"
         style="fill:#ffffff" />
      <path
         inkscape:connector-curvature="0"
         id="path7070"
         d="m 220.04217,557.00001 c 0.80919,-2.12813 1.34906,-3.95063 1.19972,-4.05 -0.14934,-0.0994 -2.73178,-1.91644 -5.73876,-4.03792 -3.00697,-2.12148 -5.50229,-3.80898 -5.54514,-3.75 -0.0428,0.059 -0.42504,0.92572 -0.84931,1.92609 -2.51389,5.92744 -1.51638,10.36832 2.83428,12.61814 1.18417,0.61235 4.31285,1.29416 5.60321,1.22106 l 1.02474,-0.058 1.47126,-3.86932 z"
         style="fill:#ffffff" />
      <path
         inkscape:connector-curvature="0"
         id="path7068"
         d="m 213.80656,556.99701 c -0.50318,-0.21917 -1.29484,-0.85006 -1.75924,-1.40197 -0.74598,-0.88655 -0.82453,-1.17104 -0.67406,-2.44151 0.29334,-2.47679 0.38436,-2.50656 2.90902,-0.95143 3.24448,1.99852 3.16816,1.88666 2.51905,3.69177 -0.46712,1.29903 -0.66194,1.52338 -1.31416,1.51338 -0.42116,-0.006 -1.17743,-0.19107 -1.68061,-0.41024 z"
         style="fill:#000000" />
      <path
         inkscape:connector-curvature="0"
         id="path7066"
         d="m 491.14582,613.1715 c -2.93592,-4.34561 -5.13366,-6.25247 -7.20627,-6.25247 -1.47348,0 -2.37531,0.36126 -3.61152,1.44666 l -1.01007,0.88686 -1.46901,-1.2744 -1.46898,-1.27437 3.88848,-5.96739 c 2.13867,-3.28203 4.13769,-6.39229 4.44228,-6.91165 l 0.5538,-0.9443 -2.68638,-3.4057 c -1.4775,-1.87314 -2.91594,-3.7395 -3.19653,-4.14746 -0.44994,-0.65417 -0.51015,-1.71692 -0.50991,-9.00001 l 2.7e-4,-8.25824 4.17798,-2.325 c 2.29788,-1.27875 4.31142,-2.325 4.47453,-2.325 0.16308,0 0.73902,0.57375 1.27983,1.275 4.8261,6.25786 7.78515,8.07095 10.02621,6.14328 0.90945,-0.78228 0.97371,-1.42111 0.59718,-5.93555 -0.2991,-3.58553 -0.0608,-4.18273 1.6686,-4.18273 2.86944,0 4.00635,3.98711 2.69466,9.45 -0.99273,4.13446 -2.69058,7.72669 -6.07182,12.84626 -0.96123,1.45544 -1.74687,2.73794 -1.74582,2.85 0,0.11206 0.3882,0.42346 0.86034,0.69201 2.10009,1.19455 3.93636,5.47926 4.54776,10.61173 0.33633,2.82315 0.2604,7.64289 -0.20136,12.78486 l -0.17826,1.98491 -1.87152,0.1747 c -2.31588,0.2163 -4.78887,1.1304 -5.87622,2.1722 l -0.8229,0.7883 -1.28535,-1.9025 z"
         style="fill:#000000" />
      <path
         inkscape:connector-curvature="0"
         id="path7064"
         d="m 494.57335,600.46899 c 0.0326,-2.8515 -0.0874,-4.66665 -0.37386,-5.65341 -0.44562,-1.53504 -2.14794,-3.63996 -2.77473,-3.43103 -0.34158,0.11386 -6.52212,9.44174 -6.54378,9.87605 -0.005,0.10539 0.49671,0.28638 1.11546,0.40221 2.02611,0.37932 4.30353,1.69374 6.18285,3.5685 l 1.84215,1.83768 0.25191,-1.2 c 0.13854,-0.66 0.27354,-3.09 0.3,-5.4 z"
         style="fill:#ffffff" />
      <path
         inkscape:connector-curvature="0"
         id="path7062"
         d="m 490.19644,600.44859 c -0.78375,-0.40752 -1.425,-0.79806 -1.425,-0.86787 0,-0.0698 0.56454,-1.02729 1.25451,-2.12778 1.1364,-1.81241 1.29141,-1.95038 1.64619,-1.46519 0.75897,1.03796 0.94824,4.92368 0.2493,5.11829 -0.165,0.0459 -0.94125,-0.24993 -1.725,-0.65745 z"
         style="fill:#000000" />
      <path
         inkscape:connector-curvature="0"
         id="path7060"
         d="m 492.08521,582.56334 c 2.66841,-4.326 2.78058,-4.72872 1.32012,-4.73961 -1.13589,-0.008 -3.79254,-1.58 -5.72178,-3.38471 l -1.91211,-1.78867 0,5.10372 0,5.10373 1.68156,2.14911 c 0.92487,1.18201 1.75071,2.07995 1.83525,1.99542 0.0845,-0.0845 1.34316,-2.08207 2.79696,-4.43899 z"
         style="fill:#ffffff" />
      <path
         inkscape:connector-curvature="0"
         id="path7058"
         d="m 488.782,581.73886 c -0.35418,-0.6618 -0.42768,-3.72425 -0.0856,-3.56496 0.12375,0.0576 0.72933,0.41857 1.34574,0.80212 l 1.12077,0.69737 -0.91017,1.32287 c -0.50058,0.72759 -0.96642,1.32288 -1.03521,1.32288 -0.0688,0 -0.26478,-0.26113 -0.43557,-0.58028 z"
         style="fill:#000000" />
      <path
         inkscape:connector-curvature="0"
         id="path7056"
         d="m 467.39011,603.31692 c -1.55121,-1.36545 -2.42235,-3.27204 -2.77137,-6.06558 l -0.2133,-1.70723 -4.20783,3.63887 -4.2078,3.63888 -0.84591,-1.02636 c -1.34592,-1.63302 -2.27532,-3.53796 -3.1386,-6.43295 -1.0836,-3.63387 -1.3827,-10.99001 -0.60324,-14.83674 0.90522,-4.46744 2.33265,-7.16053 4.63278,-8.74051 l 1.01337,-0.69611 -0.16584,-2.11003 c -0.1896,-2.41253 -1.61682,-7.01555 -2.92293,-9.42703 -0.4884,-0.90175 -0.888,-1.81332 -0.888,-2.02571 0,-0.66478 1.06428,-0.99988 4.19646,-1.3213 3.22122,-0.33056 4.32501,-0.63143 5.19069,-1.41486 0.50628,-0.45818 0.76653,-0.25934 4.38195,3.34804 l 3.84366,3.83515 1.53366,-0.77716 c 1.8792,-0.95226 2.33184,-0.97029 2.56449,-0.10215 0.31311,1.16835 0.22851,1.34822 -1.52472,3.24193 l -1.71384,1.85113 -0.10257,15.64097 c -0.061,9.30424 0.0102,15.80543 0.17568,16.04693 0.22089,0.32232 0.4149,0.33285 0.94134,0.0511 0.54516,-0.29175 0.76539,-0.26232 1.23816,0.16554 0.31626,0.28623 0.57504,0.67212 0.57504,0.85758 0,0.30339 -2.22282,2.56623 -4.67424,4.75836 l -0.92424,0.82647 -1.38285,-1.21722 z"
         style="fill:#000000" />
      <path
         inkscape:connector-curvature="0"
         id="path7054"
         d="m 462.22555,591.61105 c 0.9852,-1.94424 1.57659,-4.57091 1.82469,-8.10444 l 0.20097,-2.86252 -2.58213,-2.63498 c -1.42014,-1.44924 -2.71197,-2.55472 -2.87073,-2.45661 -0.65757,0.40641 -1.36866,4.84384 -1.37277,8.56664 -0.005,4.32633 0.5763,6.79363 2.00943,8.53225 1.09827,1.33242 1.70226,1.10724 2.79054,-1.04034 z"
         style="fill:#ffffff" />
      <path
         inkscape:connector-curvature="0"
         id="path7052"
         d="m 460.21837,588.74329 c -0.41826,-0.97378 -0.55116,-8.01813 -0.15864,-8.41156 0.13104,-0.13136 0.56493,0.16088 0.9642,0.64943 0.82821,1.01345 0.936,2.50182 0.43308,5.98176 -0.3597,2.48913 -0.7149,2.99966 -1.23864,1.78037 z"
         style="fill:#000000" />
      <path
         inkscape:connector-curvature="0"
         id="path7050"
         d="m 463.65448,566.03216 c -0.83127,-0.93929 -4.96557,-4.43018 -5.09427,-4.30148 -0.0633,0.0633 0.15333,1.44794 0.48147,3.07694 0.32811,1.629 0.68652,3.78372 0.79644,4.78827 0.18867,1.72429 0.31122,1.94976 2.19159,4.03119 l 1.99173,2.20474 0.083,-4.59868 c 0.0732,-4.0537 0.0198,-4.67006 -0.45,-5.20098 z"
         style="fill:#ffffff" />
      <path
         inkscape:connector-curvature="0"
         id="path7048"
         d="m 461.8042,570.54444 c -0.13884,-0.37125 -0.35094,-1.485 -0.47136,-2.475 l -0.21894,-1.8 0.77877,0.72729 c 0.666,0.62199 0.77877,0.98035 0.77877,2.475 0,1.79173 -0.40914,2.29782 -0.86724,1.07271 z"
         style="fill:#000000" />
      <path
         inkscape:connector-curvature="0"
         id="path7046"
         d="m 248.74927,599.16987 c -3.96924,-2.51721 -6.23306,-8.52969 -5.88609,-15.63289 0.0932,-1.90715 0.39294,-4.27754 0.66618,-5.26754 0.75199,-2.72462 2.29293,-5.83294 3.68997,-7.44325 1.20867,-1.39329 1.2521,-1.51505 1.2521,-3.51034 0,-4.10365 -1.43285,-7.89103 -3.66356,-9.68368 -1.04499,-0.83977 -1.12712,-1.01159 -0.9516,-1.99097 0.29716,-1.65809 0.51332,-1.87654 2.44318,-2.46897 2.07131,-0.63586 4.02792,-2.35438 4.57791,-4.02086 0.18733,-0.56762 0.43913,-1.03204 0.55954,-1.03204 0.12041,0 1.15619,0.47473 2.30173,1.05495 5.91284,2.99491 9.31408,2.93387 11.92895,-0.21409 l 1.06492,-1.28202 0.76947,0.72287 c 0.99949,0.93898 0.96471,1.3377 -0.28822,3.30439 l -1.04232,1.63609 0,15.79703 c 0,8.68837 0.0863,16.42651 0.19174,17.19588 0.17122,1.24922 0.25946,1.37826 0.825,1.20639 0.34829,-0.10586 0.86672,-0.39739 1.15206,-0.64786 0.46975,-0.41235 0.57519,-0.38772 1.11502,0.26048 0.32792,0.39374 0.60071,0.85432 0.6062,1.02351 0.0103,0.31817 -3.76011,5.38185 -5.38724,7.23504 l -0.92289,1.05114 -1.30636,-0.63241 c -0.7185,-0.34782 -1.9981,-1.36381 -2.84355,-2.25775 l -1.53718,-1.62534 -2.4935,2.61085 c -1.37142,1.43596 -3.07449,3.2521 -3.7846,4.03585 -0.71011,0.78375 -1.38249,1.425 -1.49417,1.425 -0.11168,0 -0.80589,-0.38232 -1.54269,-0.84957 z"
         style="fill:#000000" />
      <path
         inkscape:connector-curvature="0"
         id="path7044"
         d="m 254.41461,590.10799 c 1.84323,-1.71723 2.52155,-4.85154 2.39497,-11.06644 l -0.0882,-4.32801 -3.11938,-1.30272 c -1.71566,-0.7165 -3.17435,-1.24776 -3.24153,-1.18058 -0.0672,0.0672 -0.2026,2.28557 -0.30094,4.92976 -0.26018,6.99553 0.61394,11.45216 2.54399,12.97034 0.92933,0.73101 1.00326,0.7301 1.81104,-0.0225 z"
         style="fill:#ffffff" />
      <path
         inkscape:connector-curvature="0"
         id="path7042"
         d="m 253.25201,585.58315 c -0.48576,-0.90765 -0.91275,-6.44731 -0.65136,-8.45062 l 0.22078,-1.69207 0.99023,0.62859 0.99023,0.6286 -0.17518,2.88589 c -0.40903,6.73796 -0.58006,7.4844 -1.3747,5.99961 z"
         style="fill:#000000" />
      <path
         inkscape:connector-curvature="0"
         id="path7040"
         d="m 256.98244,565.767 c 0.14918,-3.97363 0.11134,-5.51014 -0.13951,-5.66517 -0.18931,-0.11701 -1.8466,-0.50622 -3.68285,-0.86492 -1.83626,-0.3587 -3.59559,-0.72754 -3.90963,-0.81964 -0.53712,-0.15752 -0.53234,-0.10493 0.0807,0.88703 1.21207,1.96118 1.8757,4.42063 1.953,7.23794 l 0.0733,2.6728 2.53196,0.9831 c 1.39258,0.5407 2.61213,0.99169 2.71012,1.0022 0.098,0.0105 0.27027,-2.4345 0.38285,-5.43334 z"
         style="fill:#ffffff" />
      <path
         inkscape:connector-curvature="0"
         id="path7038"
         d="m 253.77143,568.01944 c -0.11,-0.11011 -0.2,-0.76669 -0.2,-1.45917 0,-0.69247 -0.13565,-1.97433 -0.30144,-2.84855 -0.1658,-0.87423 -0.24923,-1.64173 -0.1854,-1.70555 0.0638,-0.0638 0.46947,-0.0273 0.90144,0.0811 0.78098,0.19601 0.7854,0.21382 0.7854,3.1646 0,2.2729 -0.0936,2.96748 -0.4,2.96748 -0.22,0 -0.49,-0.09 -0.6,-0.2 z"
         style="fill:#000000" />
      <path
         inkscape:connector-curvature="0"
         id="path7036"
         d="m 476.7553,596.84385 c -0.56862,-0.59157 -1.40511,-1.27005 -1.85886,-1.50771 l -0.825,-0.43211 0,-12.43174 c 0,-11.98386 0.021,-12.44293 0.58029,-12.7423 0.31914,-0.1708 0.72414,-0.31055 0.9,-0.31055 0.21897,0 0.31971,2.75071 0.31971,8.72907 l 0,8.72907 2.55,3.10038 c 1.4025,1.70521 2.55,3.19252 2.55,3.30513 0,0.34781 -2.74923,4.63635 -2.97219,4.63635 -0.11556,0 -0.67533,-0.48402 -1.24395,-1.07559 z"
         style="fill:#000000" />
      <path
         inkscape:connector-curvature="0"
         id="path7034"
         d="m 434.43389,592.37836 -4.98754,-4.32501 0.69979,-1.44201 c 1.42277,-2.93178 1.77338,-5.82498 1.77438,-14.64201 6e-4,-4.455 -0.10954,-10.48232 -0.24455,-13.39405 l -0.24547,-5.29404 4.6943,-3.18096 c 2.58186,-1.74952 4.80063,-3.18095 4.9306,-3.18095 0.12997,0 0.56928,0.50625 0.97624,1.125 1.32594,2.01598 7.35809,12.47919 8.23507,14.28435 l 0.85473,1.75936 -2.87973,2.74064 c -1.58385,1.50736 -4.32486,3.88815 -6.09115,5.29065 l -3.21142,2.55 0.0926,6.45 c 0.0822,5.73047 0.15934,6.58386 0.69115,7.65 0.51,1.02242 0.75673,1.21328 1.6673,1.28975 1.02839,0.0864 1.70494,-0.27225 5.25506,-2.78559 0.53363,-0.37778 1.78702,0.79407 1.53943,1.43928 -0.17709,0.4615 -8.28688,8.01259 -8.59039,7.99858 -0.095,-0.005 -2.41722,-1.95423 -5.16037,-4.33299 z"
         style="fill:#000000" />
      <path
         inkscape:connector-curvature="0"
         id="path7032"
         d="m 441.56909,567.74073 2.53388,-1.97859 -0.51693,-0.79641 c -0.28431,-0.43802 -1.50641,-2.2805 -2.71577,-4.0944 l -2.19883,-3.29799 0,6.07299 c 0,3.34015 0.0819,6.073 0.18189,6.073 0.10004,0 1.32213,-0.89037 2.71576,-1.9786 z"
         style="fill:#ffffff" />
      <path
         inkscape:connector-curvature="0"
         id="path7030"
         d="m 440.17144,564.81933 c 0,-1.0085 0.32943,-1.19148 0.83797,-0.46545 0.37377,0.53364 0.37791,0.6712 0.0269,0.8935 -0.6627,0.41972 -0.86488,0.31965 -0.86488,-0.42805 z"
         style="fill:#000000" />
      <path
         inkscape:connector-curvature="0"
         id="path7028"
         d="m 411.75619,586.41118 c -5.01692,-4.43332 -5.01619,-4.43242 -4.62039,-5.64399 1.30293,-3.98833 1.96047,-11.07035 1.97393,-21.26019 0.0105,-7.9575 -0.0421,-8.94448 -0.51493,-9.66695 -0.46698,-0.71346 -0.61951,-0.76932 -1.34631,-0.49299 -0.69932,0.26588 -0.89872,0.21399 -1.35822,-0.35346 -0.2962,-0.36581 -0.49513,-0.79538 -0.44206,-0.9546 0.0531,-0.15922 1.53247,-1.28401 3.28753,-2.49953 l 3.19104,-2.21003 2.41676,2.58309 2.41677,2.5831 0.81059,-0.53112 c 0.44582,-0.29212 1.81615,-1.25262 3.04516,-2.13445 l 2.23457,-1.60333 0.7984,1.2713 c 3.22189,5.13022 4.87631,8.08262 4.64334,8.28629 -1.42541,1.24614 -5.47505,4.53501 -5.58404,4.53501 -0.0769,0 -0.9911,-1.09822 -2.03154,-2.44048 l -1.89171,-2.44047 -0.55338,0.71547 c -2.17584,2.81319 -3.39842,10.80709 -2.67881,17.51548 0.60516,5.64141 1.7042,8.76518 3.39071,9.63732 0.84916,0.43911 1.00898,0.43742 1.9699,-0.0208 0.57517,-0.27428 1.13789,-0.3902 1.2505,-0.2576 0.11261,0.13259 0.49991,0.63317 0.86068,1.11238 0.62919,0.83576 0.63434,0.89546 0.12635,1.46358 -0.58088,0.64963 -4.21181,3.44832 -6.44484,4.96762 l -1.41525,0.96291 -3.53475,-3.12356 z"
         style="fill:#000000" />
      <path
         inkscape:connector-curvature="0"
         id="path7026"
         d="m 276.42706,587.22459 c -1.84857,-1.46111 -2.44422,-2.0989 -2.30064,-2.46341 0.10655,-0.27052 0.32569,-1.78922 0.48698,-3.3749 0.33559,-3.29939 0.22735,-28.89843 -0.12367,-29.24898 -0.12744,-0.12726 -0.90489,0.053 -1.72766,0.40063 -1.44566,0.61078 -1.50595,0.61335 -1.7933,0.0764 -0.48558,-0.90733 -0.38383,-1.07229 1.64481,-2.66654 1.76968,-1.39074 4.1272,-3.98653 4.42095,-4.86777 0.19212,-0.57638 1.65748,-0.0425 2.80988,1.02367 0.57402,0.53108 1.3535,1.73382 1.73219,2.67275 l 0.68852,1.70714 4.17414,-4.18214 c 2.29577,-2.30018 4.28314,-4.18214 4.41636,-4.18214 0.13323,0 1.2031,0.72702 2.37751,1.6156 l 2.13527,1.6156 1.15849,-1.4656 c 0.63717,-0.80608 1.23577,-1.4656 1.33021,-1.4656 0.0944,0 0.5614,0.27748 1.03768,0.61662 l 0.86597,0.61663 -1.3035,2.60837 -1.3035,2.60838 -0.19892,15.6 c -0.11971,9.38762 -0.0887,15.76626 0.0778,16.01751 0.22885,0.34527 0.43289,0.30633 1.17907,-0.225 1.13485,-0.80808 1.2833,-0.79712 1.97028,0.1455 l 0.56057,0.76916 -1.45834,1.54641 c -3.76851,3.99611 -5.36597,5.59642 -5.58645,5.59642 -0.13186,0 -0.84408,-0.55705 -1.58269,-1.23788 -1.05338,-0.97097 -1.4724,-1.657 -1.9433,-3.1816 -0.56495,-1.8291 -0.60036,-2.78844 -0.60036,-16.26736 0,-14.8125 -0.0821,-15.9149 -1.23155,-16.53005 -0.808,-0.43243 -1.38837,-0.0438 -3.71451,2.4871 l -2.00342,2.17979 0.14877,11.85 c 0.14539,11.58094 0.23556,12.7879 1.25821,16.84172 0.17879,0.70871 -0.044,0.99966 -2.12467,2.775 -1.27841,1.0908 -2.47254,1.97806 -2.65361,1.97169 -0.18107,-0.006 -1.45168,-0.89879 -2.82359,-1.98315 z"
         style="fill:#000000" />
      <path
         inkscape:connector-curvature="0"
         id="path7024"
         d="m 304.39697,586.52867 c -1.07804,-0.43611 -2.17739,-2.03345 -2.3941,-3.47858 -0.6008,-4.00643 1.41003,-9.93934 5.74265,-16.94354 0.88888,-1.43697 1.69544,-2.81935 1.79237,-3.07194 0.10883,-0.28358 -0.4067,-1.1827 -1.34764,-2.35039 -2.8058,-3.48196 -4.21882,-8.59262 -4.21882,-15.25874 0,-7.39677 1.64584,-13.07506 5.27279,-18.19161 2.45137,-3.45815 5.64187,-5.79596 9.53382,-6.9858 4.11008,-1.25653 8.72894,-0.59689 14.0685,2.00918 l 2.92511,1.42765 3.42481,-2.93279 c 1.88365,-1.61303 3.63385,-2.93278 3.88934,-2.93278 0.25549,0 0.60713,0.26645 0.78142,0.59212 0.26241,0.49032 0.14312,0.78687 -0.6939,1.725 -0.55593,0.62308 -1.43628,1.72688 -1.95634,2.45289 l -0.94555,1.32001 0,25.75499 c 0,14.16524 0.0798,25.75499 0.17732,25.75499 0.0975,0 0.72931,-0.4725 1.40399,-1.05 0.67468,-0.5775 1.45147,-1.05 1.7262,-1.05 0.63498,0 1.49249,0.93525 1.49249,1.62781 0,1.0824 -2.45761,5.24397 -3.88566,6.57975 -3.4275,3.20603 -6.53824,2.30761 -9.36742,-2.70543 l -0.93447,-1.65578 -3.67561,3.66678 -3.67561,3.66679 -2.50561,-1.80072 c -3.38365,-2.43173 -4.7918,-3.20169 -7.52771,-4.11604 -2.49387,-0.83346 -3.43599,-0.79347 -4.32001,0.18336 -0.4368,0.48266 -0.53827,1.14092 -0.54708,3.54882 -0.01,2.70805 -0.0719,3.02125 -0.73811,3.73045 -0.76064,0.80971 -2.19925,1.00862 -3.49717,0.48355 z"
         style="fill:#000000" />
      <path
         inkscape:connector-curvature="0"
         id="path7022"
         d="m 327.40861,576.4605 c 0.53095,-0.22625 1.47161,-0.92375 2.09036,-1.55 l 1.125,-1.13863 0,-5.22637 0,-5.22637 -1.125,0.16864 c -0.61875,0.0928 -3.66692,0.39799 -6.77373,0.67831 l -5.64872,0.50969 -1.77628,3.54343 c -0.97694,1.94889 -1.77627,3.65915 -1.77627,3.80057 0,0.14142 0.50625,0.4093 1.125,0.59528 0.61875,0.18599 2.94001,1.21985 5.15834,2.29748 4.31713,2.0972 5.66721,2.37213 7.6013,1.54797 z"
         style="fill:#ffffff" />
      <path
         inkscape:connector-curvature="0"
         id="path7020"
         d="m 323.02143,572.73644 c -1.12657,-0.42152 -4.67766,-1.71433 -5.47683,-1.9939 -0.26807,-0.0938 1.66301,-4.04861 2.02683,-4.15094 0.2475,-0.0696 2.17125,-0.21795 4.275,-0.32963 l 3.825,-0.20306 0,2.89385 c 0,2.67247 -0.0563,2.95017 -0.73636,3.6302 -0.88332,0.88333 -1.86059,0.92165 -3.91364,0.15348 z"
         style="fill:#000000" />
      <path
         inkscape:connector-curvature="0"
         id="path7018"
         d="m 324.67143,569.71933 c 0,-0.51892 -0.19258,-0.597 -1.425,-0.57775 l -1.425,0.0223 1.2,0.5555 c 1.54803,0.71661 1.65,0.71661 1.65,0 z"
         style="fill:#ffffff" />
      <path
         inkscape:connector-curvature="0"
         id="path7016"
         d="m 330.59643,556.53774 c 0.0412,-0.0101 0.0739,-4.30466 0.0725,-9.54341 l -0.002,-9.525 -3.84496,7.2 c -2.11472,3.96 -4.54362,8.422 -5.39754,9.91556 -0.85393,1.49355 -1.5526,2.77896 -1.5526,2.85645 0,0.10105 10.09842,-0.74976 10.725,-0.9036 z"
         style="fill:#ffffff" />
      <path
         inkscape:connector-curvature="0"
         id="path7014"
         d="m 325.27143,553.39236 c 0,-0.0698 0.57375,-1.18358 1.275,-2.475 l 1.275,-2.34803 0.0897,2.07023 c 0.11709,2.70111 0.0283,2.87977 -1.43032,2.87977 -0.66518,0 -1.20942,-0.0571 -1.20942,-0.12697 z"
         style="fill:#000000" />
      <path
         inkscape:connector-curvature="0"
         id="path7012"
         d="m 313.29546,555.99243 c 0.26071,-0.45271 2.33252,-4.04329 4.60403,-7.97907 2.84162,-4.92362 4.03331,-7.25266 3.82006,-7.46591 -0.48697,-0.48698 -2.52317,-0.36302 -3.77208,0.22963 -0.62538,0.29676 -1.62958,1.2011 -2.23155,2.00964 l -1.09449,1.47007 -0.0929,-1.40583 c -0.12134,-1.83525 0.86851,-5.06275 2.05508,-6.70077 0.63591,-0.87784 1.45659,-1.52443 2.59834,-2.04713 1.47737,-0.67637 1.93818,-0.74557 4.01602,-0.60315 l 2.34716,0.16087 0.74587,-1.24572 0.74587,-1.24573 -1.25769,-0.59164 c -0.99719,-0.46909 -1.91014,-0.59336 -4.4077,-0.6 -2.72935,-0.007 -3.32407,0.0845 -4.45356,0.68731 -2.89187,1.54329 -4.95689,4.47362 -6.38812,9.0649 -1.01098,3.24319 -1.01388,9.06637 -0.006,12.27559 0.76939,2.45007 1.80431,4.81492 2.10583,4.81194 0.10558,-9e-4 0.40527,-0.37229 0.66599,-0.825 z"
         style="fill:#ffffff" />
      <path
         inkscape:connector-curvature="0"
         id="path7010"
         d="m 313.12914,550.59433 c -0.11358,-0.28875 -0.28377,-1.52046 -0.37821,-2.73713 l -0.17172,-2.21213 0.79962,0.52393 c 0.53381,0.34977 1.09762,0.46432 1.69611,0.34462 0.49307,-0.0986 0.89649,-0.098 0.89649,0.001 0,0.23263 -2.41064,4.60444 -2.53891,4.60444 -0.0533,0 -0.18981,-0.23625 -0.30338,-0.525 z"
         style="fill:#000000" />
      <path
         inkscape:connector-curvature="0"
         id="path7008"
         d="m 387.78289,584.15212 c -2.86075,-2.76309 -5.22873,-4.3789 -7.76145,-5.29606 -0.825,-0.29875 -1.54174,-0.57222 -1.59276,-0.60771 -0.051,-0.0355 0.15149,-0.85529 0.45,-1.82178 0.49595,-1.60572 0.53525,-2.93429 0.45567,-15.40724 l -0.0871,-13.65 3.45532,-2.73579 3.45531,-2.73579 -3.39226,-4.01421 c -1.86574,-2.20782 -3.6177,-4.19949 -3.89323,-4.42595 -0.4343,-0.35693 -0.50097,-1.13337 -0.50097,-5.83385 l 0,-5.42211 1.08317,1.03385 c 0.59575,0.56861 5.13001,5.3876 10.07613,10.70885 4.94612,5.32125 9.11149,9.675 9.25638,9.675 0.14489,0 0.74953,-0.4268 1.34363,-0.94843 l 1.0802,-0.94842 0.76841,0.7684 0.7684,0.76841 -0.86316,1.13147 -0.86316,1.13147 -0.0819,17.74019 -0.0818,17.74019 -2.74031,1.33336 c -1.50717,0.73335 -3.82338,2.04211 -5.14713,2.90836 -1.32375,0.86625 -2.41628,1.57001 -2.42784,1.56392 -0.0115,-0.006 -1.25337,-1.20136 -2.75957,-2.65613 z"
         style="fill:#000000" />
      <path
         inkscape:connector-curvature="0"
         id="path7006"
         d="m 393.37144,565.08199 0,-13.63733 -2.31438,-2.48767 c -1.2729,-1.36821 -2.39863,-2.52541 -2.50163,-2.57154 -0.10299,-0.0461 -0.68152,0.66054 -1.28563,1.57038 l -1.09836,1.65427 0.003,12.22961 0.003,12.22962 1.12155,0.53796 c 0.61686,0.29588 2.20156,1.32967 3.52156,2.29731 1.32,0.96764 2.43375,1.77181 2.475,1.78704 0.0412,0.0152 0.075,-6.10911 0.075,-13.60965 z"
         style="fill:#ffffff" />
      <path
         inkscape:connector-curvature="0"
         id="path7004"
         d="m 389.84644,571.45318 -0.675,-0.32554 0,-9.31029 0,-9.31028 0.9,0.86226 0.9,0.86225 0,8.79387 c 0,4.83663 -0.10125,8.78474 -0.225,8.77357 -0.12375,-0.0112 -0.52875,-0.16679 -0.9,-0.34584 z"
         style="fill:#000000" />
      <path
         inkscape:connector-curvature="0"
         id="path7002"
         d="m 442.72896,586.11193 c -0.46587,-0.34066 -0.59981,-1.04098 -0.81761,-4.275 -0.14326,-2.12718 -0.2221,-4.08021 -0.17519,-4.34006 0.10713,-0.59352 10.68725,-9.94264 11.01944,-9.73733 0.13431,0.083 0.31377,0.51482 0.39879,0.95959 0.11739,0.61406 -0.11874,1.17467 -0.98112,2.32944 -2.13015,2.85238 -3.48405,6.09173 -4.35509,10.42009 -0.52995,2.63339 -1.23338,3.7532 -2.90684,4.62745 -1.01251,0.52896 -1.47602,0.53232 -2.18238,0.0158 z"
         style="fill:#000000" />
      <path
         inkscape:connector-curvature="0"
         id="path7000"
         d="m 445.41507,579.09978 c 0.38136,-1.50939 0.37471,-1.55786 -0.17353,-1.26445 -0.47285,0.25306 -0.56417,0.62315 -0.5353,2.16955 0.0191,1.02545 0.0972,1.59445 0.17353,1.26445 0.0763,-0.33 0.31718,-1.3063 0.5353,-2.16955 z"
         style="fill:#ffffff" />
      <path
         inkscape:connector-curvature="0"
         id="path6998"
         d="m 350.99345,581.61663 -2.32094,-2.1473 0.30779,-1.30533 c 0.4824,-2.04587 0.87985,-12.19572 0.88575,-22.61967 0.006,-10.61741 0.13506,-10.0625 -2.07771,-8.93363 l -1.1592,0.59138 -0.47885,-0.73082 c -0.65253,-0.99588 -0.61645,-1.14129 0.4377,-1.764 1.71531,-1.01325 4.33125,-3.39975 5.08344,-4.63758 0.85734,-1.41086 1.46576,-1.54335 2.94521,-0.64136 0.91754,0.55941 1.33523,1.25657 2.63382,4.39613 0.2506,0.60585 0.60367,0.33846 4.69564,-3.5562 l 4.42467,-4.2113 2.10341,1.86481 2.1034,1.86481 1.37336,-1.12537 1.37336,-1.12537 0.75738,0.75738 0.75738,0.75738 -1.30881,2.20272 -1.30881,2.20271 -0.0829,15.59468 c -0.0456,8.57708 -0.018,15.76393 0.0614,15.97079 0.11143,0.29037 0.36188,0.30026 1.09874,0.0434 0.85684,-0.29869 1.01136,-0.25924 1.51132,0.38587 0.30629,0.39523 0.52416,0.85359 0.48416,1.01859 -0.04,0.165 -1.7332,1.91507 -3.76267,3.88904 -3.08028,2.99606 -3.77421,3.53678 -4.2,3.27274 -0.63946,-0.39656 -1.8383,-2.51729 -2.24125,-3.96474 -0.17823,-0.64022 -0.38106,-7.7988 -0.4871,-17.19102 -0.17234,-15.26478 -0.21115,-16.12649 -0.7532,-16.725 -0.31432,-0.34706 -0.76858,-0.63102 -1.00945,-0.63102 -0.24088,0 -1.48388,1.01783 -2.76224,2.26186 l -2.32428,2.26186 -0.20072,7.56314 c -0.21311,8.03026 0.17225,18.76764 0.74519,20.76314 l 0.34454,1.2 -2.21077,2.05031 c -1.21593,1.12767 -2.41486,2.16146 -2.6643,2.2973 -0.33063,0.18007 -1.08247,-0.33489 -2.77446,-1.90031 z"
         style="fill:#000000" />
      <path
         inkscape:connector-curvature="0"
         id="path6996"
         d="m 269.90331,582.83029 c -0.25024,-0.65212 -0.29813,-23.10286 -0.0512,-23.98596 0.32936,-1.17774 1.28781,-1.10734 1.53178,0.1125 0.32735,1.63674 0.2161,23.04852 -0.12305,23.68222 -0.35386,0.66119 -1.135,0.77123 -1.35757,0.19124 z"
         style="fill:#000000" />
      <path
         inkscape:connector-curvature="0"
         id="path6994"
         d="m 425.2427,580.8162 c -1.75363,-2.24431 -1.90867,-2.36697 -2.59601,-2.05379 -1.05161,0.47914 -2.14344,0.10575 -2.52718,-0.86427 -0.69169,-1.74844 -1.3236,-6.37663 -1.34197,-9.82881 -0.0185,-3.4796 0.50141,-7.49563 1.01122,-7.81071 0.13639,-0.0843 0.77592,0.41273 1.42118,1.10448 l 1.17321,1.25774 2.56225,-2.00076 c 1.40924,-1.10041 2.63191,-2.00075 2.71704,-2.00075 0.0851,0 0.33573,0.97875 0.55689,2.175 0.62369,3.37352 0.52659,14.21891 -0.16584,18.525 -0.30513,1.8975 -0.64275,3.54759 -0.75028,3.66686 -0.10752,0.11927 -1.03475,-0.85722 -2.06051,-2.16999 z"
         style="fill:#000000" />
      <path
         inkscape:connector-curvature="0"
         id="path6992"
         d="m 425.89307,571.39837 c 0.0987,-2.32597 0.0779,-5.00478 -0.0461,-5.9529 l -0.22552,-1.72386 -1.65,1.33742 c -0.9075,0.73557 -1.81875,1.34256 -2.025,1.34886 -0.25992,0.008 -0.375,0.6032 -0.375,1.93973 0,1.88046 0.53005,6.49899 0.77408,6.74487 0.0672,0.0677 0.38659,-0.11607 0.70968,-0.40847 0.56671,-0.51286 0.61409,-0.50133 1.34236,0.32684 0.4152,0.47216 0.76125,0.99347 0.76899,1.15847 0.008,0.165 0.13401,0.11057 0.28059,-0.12096 0.14658,-0.23153 0.34725,-2.32403 0.44593,-4.65 z"
         style="fill:#ffffff" />
      <path
         inkscape:connector-curvature="0"
         id="path6990"
         d="m 285.80616,578.20701 c -0.13156,-0.29573 -0.29709,-4.89919 -0.36786,-10.22992 -0.1186,-8.93378 -0.0874,-9.73784 0.39873,-10.275 0.29007,-0.32052 0.64318,-0.58276 0.78469,-0.58276 0.40693,0 0.17011,21.37671 -0.23832,21.51276 -0.18593,0.0619 -0.44568,-0.12936 -0.57724,-0.42508 z"
         style="fill:#000000" />
      <path
         inkscape:connector-curvature="0"
         id="path6988"
         d="m 404.07982,577.92771 c -0.26106,-0.26106 -0.26427,-5.4814 -0.01,-15.63338 0.18312,-7.30051 0.2368,-7.875 0.73579,-7.875 0.38172,0 0.59793,0.31804 0.74342,1.09358 0.28219,1.50422 -0.0556,14.18665 -0.49018,18.40642 -0.35524,3.44903 -0.58764,4.40015 -0.97941,4.00838 z"
         style="fill:#000000" />
      <path
         inkscape:connector-curvature="0"
         id="path6986"
         d="m 359.77144,563.64538 0,-11.2138 0.90349,-0.8656 0.9035,-0.8656 -0.0785,11.98447 -0.0785,11.98448 -0.825,0.0949 -0.825,0.0949 0,-11.2138 z"
         style="fill:#000000" />
      <path
         inkscape:connector-curvature="0"
         id="path6984"
         d="m 299.77748,562.99433 c -0.003,-6.09125 0.0537,-11.01527 0.1267,-10.94225 0.073,0.073 0.53748,1.23042 1.03214,2.57202 1.18492,3.21368 2.77661,6.33603 3.77949,7.41409 l 0.80828,0.86886 -0.79641,1.38114 c -0.43802,0.75962 -1.72964,3.27114 -2.87027,5.58114 l -2.07387,4.2 -0.006,-11.075 z"
         style="fill:#000000" />
      <path
         inkscape:connector-curvature="0"
         id="path6982"
         d="m 375.50307,571.80731 c -0.1549,-0.24089 -0.3257,-4.67614 -0.37957,-9.8561 -0.1018,-9.79041 -0.0878,-9.91416 1.12074,-9.92729 0.35879,-0.004 0.39366,1.39195 0.23033,9.22041 -0.19134,9.17144 -0.40094,11.45031 -0.9715,10.56298 z"
         style="fill:#000000" />
      <path
         inkscape:connector-curvature="0"
         id="path6980"
         d="m 344.52989,569.32889 -1.26647,-1.29044 0.079,-10.24315 0.079,-10.24316 1.56906,1.85859 1.56907,1.8586 0.006,9.675 c 0.005,7.71 -0.0728,9.675 -0.3816,9.675 -0.21315,0 -0.95745,-0.5807 -1.65401,-1.29044 z"
         style="fill:#000000" />
      <path
         inkscape:connector-curvature="0"
         id="path6978"
         d="m 271.46854,542.19433 c 0.80784,-1.09269 1.68043,-2.79747 1.51602,-2.96188 -0.0721,-0.0721 -1.93832,-0.0933 -4.14712,-0.0471 l -4.01601,0.084 1.4887,1.05 c 1.6693,1.17739 4.12296,2.68708 4.37988,2.69488 0.0927,0.003 0.44306,-0.36613 0.77853,-0.81988 z"
         style="fill:#ffffff" />
      <path
         inkscape:connector-curvature="0"
         id="path6976"
         d="m 283.72143,540.01933 0.86226,-0.9 -2.23113,10e-4 -2.23113,10e-4 1.35,0.8976 c 0.7425,0.49358 1.3585,0.898 1.36888,0.89871 0.0104,6e-4 0.40688,-0.40371 0.88112,-0.89871 z"
         style="fill:#ffffff" />
      <path
         inkscape:connector-curvature="0"
         id="path6974"
         d="m 406.92769,539.21439 c -0.21656,-0.0867 -0.47532,-0.076 -0.575,0.0237 -0.0997,0.0997 0.0775,0.1706 0.39375,0.15757 0.34948,-0.0144 0.42057,-0.0855 0.18125,-0.18125 z"
         style="fill:#ffffff" />
      <path
         inkscape:connector-curvature="0"
         id="path6972"
         d="m 285.97143,508.23886 c 0,-15.75726 -0.10381,-23.65583 -0.3184,-24.225 -0.45917,-1.21792 -2.00298,-2.72646 -3.7316,-3.64632 l -1.5,-0.79821 -12.6,0 c -12.41178,0 -12.61844,0.01 -13.83494,0.66066 -1.88859,1.01034 -3.14435,2.19103 -3.75116,3.52692 -0.4671,1.02832 -0.55172,2.02097 -0.55731,6.53742 l -0.007,5.325 8.1,0 8.1,0 0,-1.65 0,-1.65 2.1,0 2.1,0 0,3.45 0,3.45 -7.125,0.007 c -6.44554,0.006 -7.2495,0.0631 -8.43061,0.59904 -1.96389,0.89115 -3.52475,2.2578 -4.22078,3.69559 -0.59579,1.23075 -0.62361,1.76613 -0.62361,12.00313 0,8.32802 0.0904,10.92997 0.40567,11.68028 0.55037,1.30971 2.10568,2.76769 3.91341,3.66852 l 1.49873,0.74685 15.24109,0 15.2411,0 0,-23.38047 z"
         style="fill:#ffffff" />
      <path
         inkscape:connector-curvature="0"
         id="path6970"
         d="m 265.87143,515.56933 0,-3.45 2.1,0 2.1,0 0,3.45 0,3.45 -2.1,0 -2.1,0 0,-3.45 z"
         style="fill:#000000" />
      <path
         inkscape:connector-curvature="0"
         id="path6968"
         d="m 300.19385,529.15994 c 1.30168,-3.00164 3.90109,-6.8672 6.00525,-8.93037 l 1.67233,-1.63975 0,-19.58525 0,-19.58524 -8.1,0 -8.1,0 0,23.0625 c 0,12.68437 0.0832,23.47839 0.18485,23.9867 0.28721,1.43607 2.11179,3.32652 4.14775,4.29749 2.66513,1.27103 2.99737,1.14367 4.18982,-1.60608 z"
         style="fill:#ffffff" />
      <path
         inkscape:connector-curvature="0"
         id="path6966"
         d="m 363.97144,530.26933 c 0.7287,-0.7425 1.44284,-1.35 1.58697,-1.35 0.14412,0 0.83685,0.47101 1.53939,1.04668 l 1.27734,1.04669 1.46056,-1.03842 c 0.8033,-0.57113 1.76928,-1.54838 2.14661,-2.17169 l 0.68605,-1.13326 10e-4,-13.725 0.002,-13.725 -7.94591,0 -7.9459,0 -0.0791,9.825 -0.0791,9.825 -2.025,0.0887 -2.025,0.0887 0,-11.71371 0,-11.7137 10.05,0 10.05,0 0,-6.45 0,-6.45 -10.05,0 -10.05,0 0,-1.65 0,-1.65 -8.10001,0 -8.1,0 0,1.65 0,1.65 -1.95,0 -1.95,0 0,6.45 0,6.45 1.95,0 1.95,0 0,10.05 c 0,5.5275 0.0797,10.05 0.17716,10.05 0.0974,0 0.88566,-0.6053 1.75163,-1.34512 0.86595,-0.73981 2.34914,-1.68771 3.29597,-2.10644 l 1.7215,-0.76133 1.7371,0.77956 c 3.51582,1.57781 5.44949,4.66806 4.78144,7.64135 -0.3569,1.58843 -0.66485,2.16498 -1.89271,3.54352 -1.318,1.47974 -1.67209,2.67477 -1.67209,5.64322 l 0,2.50524 8.18754,0 8.18754,0 1.32493,-1.35 z"
         style="fill:#ffffff" />
      <path
         inkscape:connector-curvature="0"
         id="path6964"
         d="m 410.79112,530.64433 c 1.02965,-0.53625 2.2902,-1.49372 2.80121,-2.12771 l 0.92911,-1.15271 0.0876,-20.89729 c 0.0482,-11.49351 0.007,-21.3441 -0.0919,-21.89019 -0.23674,-1.30935 -1.98715,-3.20823 -3.87659,-4.20541 l -1.51903,-0.80169 -12.6,0 c -12.41179,0 -12.61845,0.01 -13.83495,0.66066 -1.88859,1.01034 -3.14434,2.19103 -3.75116,3.52692 -0.50993,1.12263 -0.5512,2.29838 -0.55731,15.87599 l -0.007,14.66357 8.475,8.6391 8.475,8.63911 6.79879,0.0223 6.79879,0.0223 1.8721,-0.975 z"
         style="fill:#ffffff" />
      <path
         inkscape:connector-curvature="0"
         id="path6962"
         d="m 394.57144,505.66933 0,-13.35 2.1,0 2.1,0 0,13.35 0,13.35 -2.1,0 -2.1,0 0,-13.35 z"
         style="fill:#000000" />
      <path
         inkscape:connector-curvature="0"
         id="path6960"
         d="m 317.07044,514.34709 c 1.99979,-0.46378 7.25555,-0.60631 9.56842,-0.25947 l 1.33257,0.19983 0,-17.43406 0,-17.43406 -7.95,0 -7.95,0 0,18.27117 0,18.27118 1.53742,-0.58417 c 0.84558,-0.3213 2.4033,-0.78498 3.46159,-1.03042 z"
         style="fill:#ffffff" />
      <path
         inkscape:connector-curvature="0"
         id="path6958"
         d="m 293.62143,469.10258 c 1.94814,-0.92327 2.75778,-1.72634 3.63088,-3.60144 l 0.71326,-1.53182 0.003,-13.875 0.003,-13.875 -7.95,0 -7.95,0 0,9.9 0,9.9 -2.1,0 -2.1,0 0,-11.7 0,-11.7 10.05,0 10.05,0 0,-6.45 0,-6.45 -10.05,0 -10.05,0 0,-1.65 0,-1.65 -8.1,0 -8.1,0 0,1.65 0,1.65 -1.95,0 -1.95,0 0,6.45 0,6.45 1.95,0 1.95,0 0,15.24555 c 0,17.41614 0.007,17.47712 2.22053,19.69077 2.1942,2.1942 2.33356,2.21359 16.07947,2.23707 l 12.15,0.0208 1.5,-0.71088 z"
         style="fill:#ffffff" />
      <path
         inkscape:connector-curvature="0"
         id="path6956"
         d="m 319.87143,449.56932 0,-20.25 2.1,0 2.1,0 0,20.25 0,20.25 7.95,0 7.95,0 0,-24.00963 c 0,-19.49983 -0.0762,-24.19096 -0.40566,-24.975 -0.53885,-1.28228 -2.09663,-2.76339 -3.77792,-3.59197 -1.28377,-0.63267 -1.80646,-0.67884 -8.64142,-0.7633 l -7.275,-0.0899 0,-7.33509 0,-7.3351 -6.75,0 -6.75,0 0,-13.62698 0,-13.62698 -0.75782,-0.90063 c -0.41681,-0.49534 -1.32806,-1.10254 -2.025,-1.34933 -0.69695,-0.24679 -1.01556,-0.45937 -0.70802,-0.47239 0.92,-0.039 2.80545,-1.24763 3.15995,-2.02568 0.42438,-0.93141 0.44949,-17.50904 0.0288,-19.02342 -0.39724,-1.43001 -2.16756,-3.17622 -4.19792,-4.14075 l -1.65,-0.78384 -15.075,-0.0926 -15.075,-0.0927 0,26.26766 0,26.26765 7.95,0 7.95,0 0,-9.9 0,-9.9 2.1,0 2.1,0 0.007,15.225 c 0.006,14.17919 0.0447,15.30743 0.56217,16.425 0.73751,1.59296 1.91053,2.64653 4.02151,3.61202 1.46765,0.67126 2.30183,0.82182 5.325,0.96111 l 3.58473,0.16516 0,27.55586 0,27.55585 8.1,0 8.1,0 0,-20.25 z"
         style="fill:#ffffff" />
      <path
         inkscape:connector-curvature="0"
         id="path6954"
         d="m 285.97143,362.11932 0,-3.3 2.1,0 2.1,0 0,3.3 0,3.3 -2.1,0 -2.1,0 0,-3.3 z"
         style="fill:#000000" />
      <path
         inkscape:connector-curvature="0"
         id="path6952"
         d="m 376.27144,469.19505 c 1.66446,-0.75344 2.85479,-1.8548 3.70247,-3.42573 0.58935,-1.09219 0.65629,-1.73228 0.74504,-7.125 l 0.0975,-5.925 -7.95684,0 -7.95684,0 -0.0907,1.575 -0.0907,1.575 -2.1,0 -2.1,0 -0.0848,-3.375 -0.0848,-3.375 10.20982,0 10.20983,0 0,-13.65963 c 0,-10.85362 -0.084,-13.86069 -0.40894,-14.63836 -0.55845,-1.33656 -2.9283,-3.35607 -4.61115,-3.92948 -2.13072,-0.72601 -24.20375,-0.70057 -26.34893,0.0304 -1.90135,0.64786 -4.50887,3.17782 -4.77327,4.6313 -0.10163,0.5587 -0.14494,10.46581 -0.0962,22.01581 0.0879,20.86 0.0928,21.00801 0.73606,22.2 0.84768,1.57093 2.03801,2.67229 3.70247,3.42573 1.28773,0.58291 1.91738,0.6111 13.65001,0.6111 11.73262,0 12.36227,-0.0282 13.65,-0.6111 z"
         style="fill:#ffffff" />
      <path
         inkscape:connector-curvature="0"
         id="path6950"
         d="m 360.50581,435.83677 c -0.0866,-0.22559 -0.11847,-1.75055 -0.0709,-3.3888 l 0.0865,-2.97865 2.1,0 2.1,0 0,3.3 0,3.3 -2.02912,0.0888 c -1.50281,0.0658 -2.06995,-0.0176 -2.18651,-0.32135 z"
         style="fill:#000000" />
      <path
         inkscape:connector-curvature="0"
         id="path6948"
         d="m 401.24303,457.74432 0.0784,-12.075 10.125,-0.079 10.125,-0.079 0,-6.44601 0,-6.44601 -10.2,0 -10.2,0 0,-1.65 0,-1.65 10.2,0 10.2,0 0,-6.45788 0,-6.45788 -15.375,0.0829 c -15.24571,0.0822 -15.38649,0.0885 -16.74142,0.75628 -1.68129,0.82858 -3.23907,2.30969 -3.77792,3.59197 -0.32947,0.78404 -0.40566,5.47517 -0.40566,24.975 l 0,24.00963 7.94659,0 7.9466,0 0.0784,-12.075 z"
         style="fill:#ffffff" />
      <path
         inkscape:connector-curvature="0"
         id="path6946"
         d="m 460.72417,468.96601 c 2.07399,-0.98118 3.57672,-2.53397 4.02924,-4.16349 0.19836,-0.71432 0.3153,-6.2065 0.31635,-14.8582 l 0.002,-13.725 -8.1,0 -8.1,0 0,9.9 0,9.9 -2.1,0 -2.1,0 0,-11.7 0,-11.7 10.2,0 10.2,0 0,-6.45 0,-6.45 -10.2,0 -10.2,0 0,-1.65 0,-1.65 -8.1,0 -8.1,0 0,1.65 0,1.65 -1.95,0 -1.95,0 0,6.45 0,6.45 1.93514,0 1.93514,0 0.0906,15.675 c 0.0881,15.2563 0.10757,15.71106 0.72746,17.025 0.87274,1.84989 1.92268,2.89306 3.78402,3.75963 l 1.57769,0.73451 12.15,0.003 12.15,0.003 1.80273,-0.85284 z"
         style="fill:#ffffff" />
      <path
         inkscape:connector-curvature="0"
         id="path6944"
         d="m 257.49842,414.31421 c 2.97008,-0.56327 5.29541,-2.16588 6.30425,-4.34489 0.52953,-1.14372 0.5559,-2.68169 0.56217,-32.79251 l 0.007,-31.59251 -15.225,0.0925 c -14.74517,0.0896 -15.26802,0.11242 -16.59024,0.72421 -0.75088,0.34743 -1.84964,1.057 -2.44168,1.57682 -2.1508,1.88843 -2.04308,0.61686 -2.04308,24.11746 l 0,21.13529 0.67842,1.00672 c 0.37314,0.55369 1.2566,1.44769 1.96324,1.98667 2.16829,1.65381 3.55897,1.89534 10.91279,1.89534 l 6.54555,0 0,1.8 0,1.8 -10.05,0 -10.05,0 0,6.45 0,6.45 13.90906,0 c 8.17362,0 14.57247,-0.12581 15.51793,-0.30511 z"
         style="fill:#ffffff" />
      <path
         inkscape:connector-curvature="0"
         id="path6942"
         d="m 243.97143,372.01932 0,-13.2 2.1,0 2.1,0 0,13.2 0,13.2 -2.1,0 -2.1,0 0,-13.2 z"
         style="fill:#000000" />
      <path
         inkscape:connector-curvature="0"
         id="path6938"
         d="m 348.36976,374.94432 c -10e-4,-14.5388 -0.11357,-23.57783 -0.30195,-24.25599 -0.40511,-1.45841 -2.14825,-3.1846 -4.1764,-4.1358 l -1.66998,-0.78321 -11.7,0 c -12.90817,0 -13.39321,0.0557 -15.81768,1.81593 -2.3998,1.74233 -2.63232,2.52159 -2.63232,8.82212 l 0,5.41195 7.95,0 7.95,0 0,-1.5 0,-1.5 2.1,0 2.1,0 0,3.28038 0,3.28037 -7.125,0.0946 c -6.83802,0.0908 -7.179,0.12341 -8.46579,0.80928 -2.11243,1.12596 -3.01244,1.89105 -3.79893,3.22945 l -0.73108,1.24411 0.0854,11.40931 c 0.0957,12.79022 -0.0486,11.95659 2.4163,13.95163 2.40965,1.95029 2.69585,1.98021 19.0441,1.99105 l 14.775,0.01 -0.002,-23.175 z"
         style="fill:#ffffff" />
      <path
         inkscape:connector-curvature="0"
         id="path6936"
         d="m 327.97143,381.76932 0,-3.45 2.1,0 2.1,0 0,3.45 0,3.45 -2.1,0 -2.1,0 0,-3.45 z"
         style="fill:#000000" />
      <path
         inkscape:connector-curvature="0"
         id="path6934"
         d="m 369.97144,378.46932 0,-19.65 2.1,0 2.1,0 0,19.65 0,19.65 8.1,0 8.1,0 -0.002,-23.175 c -10e-4,-14.5388 -0.11358,-23.57783 -0.30195,-24.25599 -0.40441,-1.45586 -2.15409,-3.19128 -4.12916,-4.09549 -1.41173,-0.64632 -2.02134,-0.73868 -4.68846,-0.71039 -3.62332,0.0384 -7.03519,0.81639 -9.37724,2.13816 -0.87571,0.49429 -1.66185,0.89871 -1.74685,0.89871 -0.085,0 -0.15454,-0.7425 -0.15454,-1.65 l 0,-1.65 -7.95,0 -7.95,0 0,26.25 0,26.25 7.95,0 7.95,0 0,-19.65 z"
         style="fill:#ffffff" />
      <path
         inkscape:connector-curvature="0"
         id="path6932"
         d="m 432.37144,365.41932 0,-32.7 -8.1,0 -8.1,0 0,6.42193 0,6.42193 -6.975,0.12694 c -5.04852,0.0919 -7.27979,0.24463 -8.07852,0.55307 -1.83073,0.70695 -3.78052,2.27074 -4.43792,3.55934 -0.6122,1.20001 -0.61926,1.49459 -0.53944,22.49451 0.0797,20.96923 0.0899,21.29064 0.70029,22.10807 1.00924,1.35153 2.69707,2.56048 4.39207,3.14594 1.45358,0.50207 2.84362,0.54952 16.36352,0.55848 l 14.775,0.01 0,-32.7 z"
         style="fill:#ffffff" />
      <path
         inkscape:connector-curvature="0"
         id="path6930"
         d="m 411.97144,372.01932 0,-13.2 2.1,0 2.1,0 0,13.2 0,13.2 -2.1,0 -2.1,0 0,-13.2 z"
         style="fill:#000000" />
      <path
         inkscape:connector-curvature="0"
         id="path6928"
         d="m 514.50894,557.59132 c 0,-1.47199 -0.0718,-1.67199 -0.6,-1.67199 -0.33333,0 -0.6,-0.2 -0.6,-0.45 0,-0.35 0.39999,-0.45 1.8,-0.45 1.40001,0 1.8,0.1 1.8,0.45 0,0.2475 -0.26295,0.45 -0.58431,0.45 -0.49323,0 -0.59847,0.24509 -0.675,1.57219 -0.0701,1.2151 -0.20994,1.59486 -0.61569,1.672 -0.44913,0.0854 -0.525,-0.1418 -0.525,-1.5722 z"
         style="fill:#000000" />
      <path
         inkscape:connector-curvature="0"
         id="path6760"
         d="m 517.33248,558.80857 c -0.0867,-0.22592 -0.11619,-1.13717 -0.0656,-2.025 0.085,-1.4904 0.14871,-1.61424 0.83082,-1.61424 0.57612,0 0.80031,0.21465 1.01838,0.975 0.35697,1.24464 0.58056,1.2287 1.05198,-0.075 0.25584,-0.7075 0.56907,-1.05 0.96027,-1.05 0.51882,0 0.58059,0.22341 0.58059,2.1 0,1.66667 -0.0928,2.1 -0.45,2.1 -0.31593,0 -0.45681,-0.33515 -0.47283,-1.125 l -0.0228,-1.125 -0.37284,1.03189 c -0.51186,1.41664 -0.92322,1.44605 -1.47891,0.10573 l -0.47166,-1.13762 -0.0156,1.125 c -0.0111,0.80351 -0.14673,1.125 -0.47487,1.125 -0.25266,0 -0.53034,-0.18484 -0.61704,-0.41076 z"
         style="fill:#000000" />
    </g>
  </g>
</svg>
